<svg xmlns="http://www.w3.org/2000/svg" viewBox="0 0 32 32" fill="none">
  <rect width="32" height="32" rx="7" fill="#7F1D1D"/>
  <path d="M22 20c4-1 6-5 6-10 0-4-3-8-7-9-1 5-5 9-10 10-4 1-6 4-7 8h14c1-2 1-5 4-7z" fill="#DC2626"/>
  <path d="M6 18c-2-3-1-7 2-9 3-2 7-1 9 2 1 2 1 5-1 7-2 3-5 4-8 3-1-1-2-2-2-3z" fill="#B91C1C"/>
  <path d="M4 18c-1 1-1 3 0 4 1 1 3 1 4 0" stroke="#991B1B" stroke-width="1.2" stroke-linecap="round"/>
  <path d="M8 11c-1-5 2-8 6-9" stroke="#FCD34D" stroke-width="1.8" stroke-linecap="round"/>
  <circle cx="9" cy="15" r="1" fill="#1C1917"/>
</svg>
