<svg xmlns="http://www.w3.org/2000/svg" viewBox="0 0 32 32" fill="none">
  <rect width="32" height="32" rx="8" fill="#B91C1C"/>
  <path d="M6 14c-1-4 2-9 7-10 1 3 3 5 4 5s3-2 4-5c5 1 8 6 7 10-1 7-6 12-11 13S7 21 6 14z" fill="#EF4444"/>
  <path d="M7 12c-3-2-4-6-2-9 2 1 3 4 3 6" stroke="#FCD34D" stroke-width="2" stroke-linecap="round"/>
  <path d="M25 12c3-2 4-6 2-9-2 1-3 4-3 6" stroke="#FCD34D" stroke-width="2" stroke-linecap="round"/>
  <ellipse cx="16" cy="19" rx="5" ry="3" fill="#FECACA"/>
  <circle cx="13" cy="19" r="1" fill="#7F1D1D"/>
  <circle cx="19" cy="19" r="1" fill="#7F1D1D"/>
</svg>
